<svg width="299" height="40" viewBox="0 0 299 40" fill="none" xmlns="http://www.w3.org/2000/svg">
<rect width="299" height="40" rx="4" fill="white"/>
<path d="M121.355 17.66H119.435V22.28H117.905V12.32H119.435V16.385H121.355V17.66ZM119.855 25.34H110.78V21.425H112.325V24.11H119.855V25.34ZM117.11 18.815L117.245 19.97C114.71 20.315 111.71 20.435 108.83 20.465L108.605 19.19C109.385 19.19 110.39 19.205 111.365 19.19V16.385H112.88V19.13H112.91C114.26 19.085 116.165 18.95 117.11 18.815ZM116.24 13.295C116.225 15.305 116.15 16.88 115.85 18.02L114.38 17.795C114.575 16.985 114.71 15.68 114.695 14.54H109.535V13.295H116.24ZM130.164 20.885L130.329 22.145C128.859 22.415 126.759 22.55 124.344 22.565L122.694 22.58V17.18H127.224V14.72H122.634V13.49H128.754V18.41H124.224V21.305C125.814 21.305 128.439 21.215 130.164 20.885ZM132.924 25.685H131.394V12.32H132.924V25.685ZM143.037 21.425L142.152 22.535C140.907 21.845 139.287 20.135 138.867 18.755C138.522 20.18 137.187 21.95 135.567 22.835L134.607 21.695C136.737 20.51 138.072 18.35 138.072 15.665V14.96H135.282V13.715H142.377V14.96H139.662V15.665C139.662 18.38 141.087 20.345 143.037 21.425ZM145.287 12.32V17.555H147.312V18.845H145.287V25.685H143.742V12.32H145.287ZM162.731 20.525H158.606V22.76H163.901V23.99H151.826V22.76H157.076V20.525H153.371V16.205H160.811V14.48H153.326V13.25H162.341V17.45H154.916V19.28H162.731V20.525ZM176.879 23.735H164.804V22.49H176.879V23.735ZM175.304 13.76C175.304 17.3 175.079 19.805 174.719 21.56L173.204 21.365C173.534 20.03 173.759 17.135 173.759 14.975H166.199V13.76H175.304ZM188.778 22.01H187.248V12.32H188.778V22.01ZM189.093 25.295H179.943V21.095H181.473V24.065H189.093V25.295ZM185.028 16.58C185.028 18.485 183.648 19.85 181.608 19.85C179.568 19.85 178.158 18.485 178.158 16.595C178.158 14.69 179.553 13.31 181.608 13.31C183.648 13.31 185.028 14.675 185.028 16.58ZM183.498 16.58C183.498 15.41 182.778 14.585 181.608 14.585C180.468 14.585 179.703 15.44 179.703 16.58C179.703 17.675 180.468 18.545 181.608 18.545C182.778 18.545 183.498 17.675 183.498 16.58Z" fill="black" fill-opacity="0.85"/>
</svg>
