<svg width="22" height="22" viewBox="0 0 22 22" fill="none" xmlns="http://www.w3.org/2000/svg">
<path d="M6.41667 14.6666H12.8333V16.4999H6.41667V14.6666ZM6.41667 10.9999H15.5833V12.8333H6.41667V10.9999ZM6.41667 7.33325H15.5833V9.16658H6.41667V7.33325ZM17.4167 3.66659H13.585C13.2 2.60325 12.1917 1.83325 11 1.83325C9.80833 1.83325 8.8 2.60325 8.415 3.66659H4.58333C4.455 3.66659 4.33583 3.67575 4.21667 3.70325C3.85917 3.77659 3.53833 3.95992 3.29083 4.20742C3.12583 4.37242 2.98833 4.57409 2.89667 4.79409C2.805 5.00492 2.75 5.24325 2.75 5.49992V18.3333C2.75 18.5808 2.805 18.8283 2.89667 19.0483C2.98833 19.2683 3.12583 19.4608 3.29083 19.6349C3.53833 19.8824 3.85917 20.0658 4.21667 20.1391C4.33583 20.1574 4.455 20.1666 4.58333 20.1666H17.4167C18.425 20.1666 19.25 19.3416 19.25 18.3333V5.49992C19.25 4.49159 18.425 3.66659 17.4167 3.66659ZM11 3.43742C11.3758 3.43742 11.6875 3.74909 11.6875 4.12492C11.6875 4.50075 11.3758 4.81242 11 4.81242C10.6242 4.81242 10.3125 4.50075 10.3125 4.12492C10.3125 3.74909 10.6242 3.43742 11 3.43742ZM17.4167 18.3333H4.58333V5.49992H17.4167V18.3333Z" fill="black"/>
</svg>
