<svg width="90" height="90" viewBox="0 0 90 90" fill="none" xmlns="http://www.w3.org/2000/svg">
<rect width="90" height="90" rx="45" fill="#F8F8F8"/>
<path d="M55.5014 28.3846C55.5014 31.1388 54.395 33.7801 52.4256 35.7276C50.4562 37.6751 47.7851 38.7692 45 38.7692C42.2149 38.7692 39.5438 37.6751 37.5744 35.7276C35.605 33.7801 34.4986 31.1388 34.4986 28.3846C34.4986 25.6304 35.605 22.9891 37.5744 21.0416C39.5438 19.0941 42.2149 18 45 18C47.7851 18 50.4562 19.0941 52.4256 21.0416C54.395 22.9891 55.5014 25.6304 55.5014 28.3846ZM24 67.4806C24.09 62.0317 26.3421 56.8361 30.2705 53.0142C34.199 49.1924 39.4891 47.0505 45 47.0505C50.5109 47.0505 55.801 49.1924 59.7295 53.0142C63.6579 56.8361 65.91 62.0317 66 67.4806C59.4118 70.4679 52.2478 72.0097 45 72C37.5062 72 30.3933 70.3827 24 67.4806Z" fill="#FF8243"/>
</svg>
