<svg width="32" height="44" viewBox="0 0 32 44" fill="none" xmlns="http://www.w3.org/2000/svg">
<path fill-rule="evenodd" clip-rule="evenodd" d="M14.9091 0H17.0909C18.1244 0.17789 19.1185 0.500675 20.0727 0.968354C23.0545 2.65401 26.0116 4.37553 28.9455 6.13291C30.5338 7.46207 31.552 9.12333 32 11.1181V22.9536C31.4065 25.5208 29.952 27.4697 27.6364 28.7996C25.0669 30.2578 22.4967 31.7168 19.9273 33.1751C19.1418 33.5165 18.3418 33.792 17.5273 34H14.4727C13.5389 33.8006 12.6422 33.4778 11.7818 33.0316C8.87782 31.3869 5.99345 29.7127 3.12727 28.0105C1.53964 26.7072 0.496727 25.0689 0 23.097V10.9747C0.605091 8.52367 2.01091 6.6465 4.21818 5.34388C7.03054 3.76582 9.84218 2.18776 12.6545 0.609705C13.4 0.348608 14.1513 0.144895 14.9091 0Z" fill="#FCB01F"/>
<path fill-rule="evenodd" clip-rule="evenodd" d="M11.4182 7.60338C13.9833 7.513 15.6436 8.68435 16.4 11.1181C16.5607 11.753 16.6218 12.3985 16.5818 13.0549C17.256 12.9595 17.9353 12.9121 18.6182 12.9114C18.6116 12.4358 18.7084 11.9818 18.9091 11.5485C18.4385 10.951 18.3535 10.3054 18.6545 9.61182C19.1273 9.06882 19.7207 8.88949 20.4364 9.07384C21.2705 9.41599 21.5731 10.0257 21.3455 10.903C20.9753 11.8448 20.3084 12.1554 19.3455 11.8354C19.1287 12.1848 19.032 12.5671 19.0545 12.9831C20.72 13.2005 22.1142 13.9178 23.2364 15.135C23.5862 14.8739 23.9375 14.6229 24.2909 14.3819C23.7345 13.255 24.0865 12.5735 25.3455 12.3376C26.7884 12.5771 27.2247 13.3662 26.6545 14.7046C26.0225 15.3165 25.3433 15.3646 24.6182 14.8481C24.2429 15.0095 23.9033 15.2247 23.6 15.4937C23.8305 16.0955 24.0247 16.7174 24.1818 17.3587C24.2429 18.2481 24.2065 19.1325 24.0727 20.0127C24.7076 20.0205 25.3135 20.1525 25.8909 20.4072C26.4036 20.8476 26.5375 21.3856 26.2909 22.0211C26.1207 22.2958 25.9389 22.5584 25.7455 22.8101C26.5338 25.665 25.4669 27.4704 22.5455 28.2257C20.6015 28.5966 19.0015 28.0464 17.7455 26.576C17.6851 26.5638 17.624 26.5523 17.5636 26.5401C16.0087 27.0365 14.4211 27.1684 12.8 26.9346C12.1644 26.7854 11.5585 26.5587 10.9818 26.2532C9.98473 26.5465 8.96655 26.6541 7.92727 26.576C7.65673 26.3643 7.51127 26.0896 7.49091 25.7511C7.62254 24.8351 7.91345 23.9743 8.36364 23.1688C8.05818 21.9322 8.08218 20.7005 8.43636 19.4747C8.39273 19.3592 8.32 19.2638 8.21818 19.1878C6.89891 18.5365 5.98982 17.5208 5.49091 16.1392C5.15345 15.0159 5.15345 13.8919 5.49091 12.7679C6.31127 11.2444 7.51127 10.8384 9.09091 11.5485C8.69091 9.53865 9.46618 8.22384 11.4182 7.60338Z" fill="#0D0904"/>
<path fill-rule="evenodd" clip-rule="evenodd" d="M11.2727 8.10548C13.6378 7.93835 15.2015 8.96624 15.9636 11.1899C16.1367 11.8254 16.1847 12.471 16.1091 13.1266C13.5462 13.7557 11.4371 15.0705 9.78182 17.0717C9.35055 17.6585 8.97527 18.2804 8.65455 18.9367C6.51709 17.8292 5.51127 16.0833 5.63636 13.7004C6.14982 11.8154 7.30182 11.2774 9.09091 12.0865C9.29164 12.3132 9.53455 12.433 9.81818 12.4451L9.92727 12.3376C9.76145 11.877 9.616 11.3986 9.49091 10.903C9.33454 9.49346 9.92873 8.56097 11.2727 8.10548Z" fill="#D0F3FC"/>
<path fill-rule="evenodd" clip-rule="evenodd" d="M19.6364 9.46836C20.9695 9.50494 21.3091 10.091 20.6545 11.2257C19.7782 11.7322 19.184 11.5055 18.8727 10.5443C18.8175 10.2696 18.8902 10.0307 19.0909 9.82701C19.2713 9.69717 19.4531 9.57738 19.6364 9.46836Z" fill="#F8DD5D"/>
<path fill-rule="evenodd" clip-rule="evenodd" d="M25.0909 12.8397C26.0895 12.7371 26.5375 13.1675 26.4364 14.1308C26.2095 14.6666 25.8095 14.8459 25.2364 14.6688C24.7084 14.3804 24.4538 13.9378 24.4727 13.3418C24.6487 13.1323 24.8545 12.9645 25.0909 12.8397Z" fill="#FADE5E"/>
<path fill-rule="evenodd" clip-rule="evenodd" d="M17.1636 13.4135C18.9324 13.2578 20.5571 13.6524 22.0364 14.597C23.6909 16.0417 24.224 17.8235 23.6364 19.9409C22.2284 19.9345 20.8218 19.9467 19.4182 19.9768C17.5476 18.2646 15.9964 16.3164 14.7636 14.1308C14.9447 13.963 15.1629 13.8554 15.4182 13.808C16.0044 13.6524 16.5862 13.5211 17.1636 13.4135Z" fill="#FBE05F"/>
<path fill-rule="evenodd" clip-rule="evenodd" d="M14.1818 14.2025C14.2545 14.1961 14.3149 14.2205 14.3636 14.2743C14.912 15.2455 15.5185 16.178 16.1818 17.0717C17.0567 18.1269 17.9658 19.1548 18.9091 20.1561C18.0444 20.613 17.9593 21.1869 18.6545 21.8776C18.7033 21.9494 18.7033 22.0211 18.6545 22.0928C18.3455 22.4407 18.0545 22.7994 17.7818 23.1688C15.2516 21.2242 13.288 18.8327 11.8909 15.9958C11.8153 15.7705 11.8756 15.5912 12.0727 15.4578C12.7564 15.0016 13.4596 14.5827 14.1818 14.2025Z" fill="#A87559"/>
<path fill-rule="evenodd" clip-rule="evenodd" d="M18.6182 14.5612C19.6393 14.5691 19.8327 14.9636 19.2 15.7447C18.5142 15.7842 18.2349 15.4614 18.3636 14.7764C18.4473 14.6946 18.5316 14.6229 18.6182 14.5612Z" fill="#0D0903"/>
<path fill-rule="evenodd" clip-rule="evenodd" d="M21.6 15.8523C22.2298 15.7684 22.5084 16.0309 22.4364 16.6414C22.1069 17.1141 21.7673 17.1141 21.4182 16.6414C21.2262 16.3078 21.2865 16.0446 21.6 15.8523Z" fill="#0E0A03"/>
<path fill-rule="evenodd" clip-rule="evenodd" d="M11.3455 16.0675C12.8778 18.9812 14.9505 21.4917 17.5636 23.5992C17.5084 23.8832 17.4356 24.1701 17.3455 24.4599C17.2836 24.9577 17.32 25.4476 17.4545 25.9304C17.4436 25.9856 17.4196 26.0337 17.3818 26.0738C16.9105 26.2532 16.4262 26.3249 15.9273 26.289C13.7673 24.9477 11.9615 23.2384 10.5091 21.1603C10.0327 20.3412 9.65745 19.4804 9.38182 18.5781C9.62909 18.0666 9.93236 17.5882 10.2909 17.1435C10.6575 16.7941 11.0087 16.4355 11.3455 16.0675Z" fill="#FDE15F"/>
<path fill-rule="evenodd" clip-rule="evenodd" d="M18.6182 16.7848C18.7418 16.7733 18.8633 16.7848 18.9818 16.8207C19.1513 17.1793 19.4182 17.4426 19.7818 17.6097C20.3098 17.7065 20.8429 17.7424 21.3818 17.7173C21.4124 17.9196 21.3396 18.0752 21.1636 18.1835C20.0473 18.4626 19.2109 18.1161 18.6545 17.1435C18.6189 17.0265 18.6065 16.9068 18.6182 16.7848Z" fill="#120D04"/>
<path fill-rule="evenodd" clip-rule="evenodd" d="M9.01818 19.0802C9.10909 19.0859 9.16946 19.1332 9.2 19.2236C9.63491 20.5836 10.3135 21.803 11.2364 22.8819C12.4618 24.2462 13.8313 25.4419 15.3455 26.4684C13.0975 26.8249 11.1942 26.2037 9.63636 24.6034C8.68145 23.3703 8.34182 21.9838 8.61818 20.443C8.73018 19.9804 8.86327 19.5263 9.01818 19.0802Z" fill="#A87558"/>
<path fill-rule="evenodd" clip-rule="evenodd" d="M19.8545 20.3713C21.3833 20.3476 22.9105 20.3835 24.4364 20.4789C24.8945 20.5262 25.3309 20.646 25.7455 20.8376C25.9505 21.0771 26.0109 21.3519 25.9273 21.6625C25.7869 21.9637 25.5927 22.2262 25.3455 22.4515C25.3331 22.5469 25.3215 22.643 25.3091 22.7384C25.4276 23.1257 25.5251 23.5203 25.6 23.9219C25.5775 24.4836 25.2865 24.6988 24.7273 24.5675L24 23.8502C23.6611 23.6766 23.4065 23.7598 23.2364 24.1013C23.1215 24.5819 23.0007 25.0596 22.8727 25.5359C22.3767 26.0444 21.9404 25.9964 21.5636 25.3924C21.5149 25.2489 21.4669 25.1055 21.4182 24.962C21.4073 24.4312 21.3585 23.9054 21.2727 23.384C21.0807 22.6638 20.6807 22.5081 20.0727 22.9177C19.8545 23.181 19.6364 23.4435 19.4182 23.7068C18.8313 23.8194 18.528 23.592 18.5091 23.0253C18.7767 22.6882 19.0073 22.3295 19.2 21.9494C19.0618 21.7048 18.88 21.4896 18.6545 21.3038C18.6058 21.184 18.6058 21.0649 18.6545 20.9452C19.0087 20.6453 19.4087 20.4538 19.8545 20.3713Z" fill="#F9DE5E"/>
<path fill-rule="evenodd" clip-rule="evenodd" d="M20.1455 21.0169C20.9724 21.2027 21.8087 21.3224 22.6545 21.3755C23.3004 21.3834 23.9309 21.288 24.5455 21.0886C24.7847 21.1345 24.8575 21.278 24.7636 21.519C23.2742 21.9967 21.7833 21.9845 20.2909 21.4831C19.9913 21.3856 19.9425 21.2299 20.1455 21.0169Z" fill="#120E05"/>
<path fill-rule="evenodd" clip-rule="evenodd" d="M20.5818 23.097C20.776 23.1659 20.8851 23.3094 20.9091 23.5274C20.992 24.0496 21.04 24.5754 21.0545 25.1055C21.3069 26.1197 21.9251 26.4669 22.9091 26.1456C23.3287 25.693 23.5353 25.155 23.5273 24.5316C23.5818 24.4004 23.6545 24.2806 23.7455 24.173C24.0342 24.5302 24.3855 24.8049 24.8 24.9979C25.0756 25.013 25.3418 25.0252 25.6 25.0338C25.1258 26.4877 24.1316 27.3844 22.6182 27.7236C21.2596 28.0335 19.9985 27.8183 18.8364 27.0781C17.6262 26.1076 17.3956 24.9477 18.1455 23.5992C18.5149 24.0503 18.9876 24.2297 19.5636 24.1371C19.6727 24.0955 19.7695 24.0353 19.8545 23.9578C20.0647 23.6365 20.3069 23.3495 20.5818 23.097Z" fill="#DE9A2D"/>
<path fill-rule="evenodd" clip-rule="evenodd" d="M8.50909 23.7426C8.58182 23.7362 8.64218 23.7605 8.69091 23.8143C9.08 24.64 9.64945 25.3214 10.4 25.8586C9.76073 26.0186 9.10618 26.1262 8.43636 26.1814C8.25382 26.1965 8.096 26.1492 7.96364 26.038C7.91491 25.8228 7.91491 25.6076 7.96364 25.3924C8.10473 24.8272 8.28654 24.2777 8.50909 23.7426Z" fill="#A57356"/>
<path d="M13.2432 40.0586V40.6562H11.1865V41.0957H12.6396V42.5664H9.69238V42.9121H12.792V43.5039H8.94238V42.0156H11.8955V41.6816H8.93066V41.0957H10.4365V40.6562H8.37988V40.0586H9.66895C9.8125 39.6074 9.84766 39.2676 9.85645 38.9746H8.81348V38.377H10.583V38.7227C10.583 39.0596 10.583 39.5049 10.4307 40.0586H11.7783C11.9102 39.6074 11.9453 39.2588 11.96 38.9746H10.9111V38.377H12.6807V38.6641C12.6807 38.998 12.6807 39.4639 12.5283 40.0586H13.2432Z" fill="white"/>
<path d="M17.7959 38.207V39.6602H18.5166V40.2754H17.7959V42.0625H17.0459V38.207H17.7959ZM16.1787 38.6348V39.2324H14.5205V40.5801C15.4844 40.5742 16.0146 40.5449 16.6123 40.416L16.6885 41.0137C16.0205 41.1543 15.4053 41.1836 14.2217 41.1836H13.7705V38.6348H16.1787ZM17.9893 42.8477V43.4453H14.3389V41.6523H15.083V42.8477H17.9893Z" fill="white"/>
<path d="M20.8193 39.6602C20.8193 40.5215 21.2588 41.4414 22.1553 41.8164L21.751 42.4023C21.1211 42.1357 20.6875 41.6055 20.4502 40.9551C20.207 41.6611 19.7646 42.2471 19.1377 42.5371L18.71 41.9453C19.5947 41.5527 20.0518 40.5625 20.0518 39.6602V39.332H18.9209V38.7227H21.9326V39.332H20.8193V39.6602ZM23.2158 38.207V43.5391H22.46V38.207H23.2158Z" fill="white"/>
</svg>
