<svg width="25" height="32" viewBox="0 0 25 32" fill="none" xmlns="http://www.w3.org/2000/svg">
<path d="M18.7508 6.15384C18.7508 7.78594 18.0923 9.35119 16.92 10.5053C15.7477 11.6593 14.1578 12.3077 12.5 12.3077C10.8422 12.3077 9.25225 11.6593 8.07999 10.5053C6.90773 9.35119 6.24917 7.78594 6.24917 6.15384C6.24917 4.52174 6.90773 2.95649 8.07999 1.80242C9.25225 0.648349 10.8422 0 12.5 0C14.1578 0 15.7477 0.648349 16.92 1.80242C18.0923 2.95649 18.7508 4.52174 18.7508 6.15384ZM0 29.3218C0.0535651 26.0929 1.39408 23.014 3.73246 20.7492C6.07084 18.4844 9.21971 17.2151 12.5 17.2151C15.7803 17.2151 18.9292 18.4844 21.2675 20.7492C23.6059 23.014 24.9464 26.0929 25 29.3218C21.0785 31.0921 16.8142 32.0057 12.5 32C8.0394 32 3.80551 31.0416 0 29.3218Z" fill="#FF8243"/>
</svg>
