<svg width="300" height="40" viewBox="0 0 300 40" fill="none" xmlns="http://www.w3.org/2000/svg">
<rect width="300" height="40" rx="4" fill="#FEE500"/>
<g clip-path="url(#clip0_33_32900)">
<path fill-rule="evenodd" clip-rule="evenodd" d="M105 11.6C100.029 11.6 96 14.7129 96 18.5523C96 20.94 97.5584 23.0449 99.9315 24.2969L98.933 27.9445C98.8448 28.2668 99.2134 28.5237 99.4965 28.3369L103.873 25.4482C104.243 25.4838 104.618 25.5046 105 25.5046C109.97 25.5046 114 22.3918 114 18.5523C114 14.7129 109.97 11.6 105 11.6Z" fill="black"/>
</g>
<path d="M129.215 13.715C129.2 18.29 127.115 21.35 123.29 23.36L122.3 22.25C124.235 21.365 125.855 19.94 126.77 18.095L122.855 18.515L122.615 17.18L127.28 16.835C127.445 16.235 127.565 15.62 127.61 14.96H123.29V13.715H129.215ZM132.83 12.32V17.54H134.9V18.815H132.83V25.685H131.285V12.32H132.83ZM142.193 13.715C142.178 18.29 140.093 21.35 136.268 23.36L135.278 22.25C137.213 21.365 138.833 19.94 139.748 18.095L135.833 18.515L135.593 17.18L140.258 16.835C140.423 16.235 140.543 15.62 140.588 14.96H136.268V13.715H142.193ZM145.808 12.32V17.54H147.878V18.815H145.808V25.685H144.263V12.32H145.808ZM160.482 23.975H148.407V22.745H153.657V20.465C151.182 20.225 149.607 18.815 149.607 16.82C149.607 14.615 151.542 13.145 154.437 13.145C157.377 13.145 159.297 14.615 159.297 16.82C159.297 18.83 157.692 20.24 155.187 20.48V22.745H160.482V23.975ZM157.752 16.835C157.752 15.41 156.447 14.405 154.437 14.405C152.472 14.405 151.152 15.41 151.152 16.835C151.152 18.245 152.472 19.205 154.437 19.205C156.432 19.205 157.752 18.245 157.752 16.835ZM176.231 20.525H172.106V22.76H177.401V23.99H165.326V22.76H170.576V20.525H166.871V16.205H174.311V14.48H166.826V13.25H175.841V17.45H168.416V19.28H176.231V20.525ZM190.379 23.735H178.304V22.49H190.379V23.735ZM188.804 13.76C188.804 17.3 188.579 19.805 188.219 21.56L186.704 21.365C187.034 20.03 187.259 17.135 187.259 14.975H179.699V13.76H188.804ZM202.278 22.01H200.748V12.32H202.278V22.01ZM202.593 25.295H193.443V21.095H194.973V24.065H202.593V25.295ZM198.528 16.58C198.528 18.485 197.148 19.85 195.108 19.85C193.068 19.85 191.658 18.485 191.658 16.595C191.658 14.69 193.053 13.31 195.108 13.31C197.148 13.31 198.528 14.675 198.528 16.58ZM196.998 16.58C196.998 15.41 196.278 14.585 195.108 14.585C193.968 14.585 193.203 15.44 193.203 16.58C193.203 17.675 193.968 18.545 195.108 18.545C196.278 18.545 196.998 17.675 196.998 16.58Z" fill="black" fill-opacity="0.85"/>
<defs>
<clipPath id="clip0_33_32900">
<rect width="17.9999" height="18" fill="white" transform="translate(96 11)"/>
</clipPath>
</defs>
</svg>
