<svg width="22" height="22" viewBox="0 0 22 22" fill="none" xmlns="http://www.w3.org/2000/svg">
<path d="M22 11C22 17.0751 17.0751 22 11 22C4.92487 22 0 17.0751 0 11C0 4.92487 4.92487 0 11 0C17.0751 0 22 4.92487 22 11Z" fill="black"/>
<path d="M12.3726 9.01333L12.9859 9.62667L6.94593 15.6667H6.3326V15.0533L12.3726 9.01333ZM14.7726 5C14.6059 5 14.4326 5.06667 14.3059 5.19333L13.0859 6.41333L15.5859 8.91333L16.8059 7.69333C17.0659 7.43333 17.0659 7.01333 16.8059 6.75333L15.2459 5.19333C15.1126 5.06 14.9459 5 14.7726 5ZM12.3726 7.12667L4.99927 14.5V17H7.49927L14.8726 9.62667L12.3726 7.12667Z" fill="white"/>
</svg>
